<svg xmlns="http://www.w3.org/2000/svg" viewBox="0 0 1440 320" preserveAspectRatio="none">
  <!-- Capa 4: más lejana -->
  <path d="M0,220 L80,160 L180,200 L260,130 L360,170 L440,110 L540,150 L620,90
           L720,130 L800,80 L900,120 L980,70 L1080,110 L1160,60 L1260,100 L1360,75
           L1440,95 L1440,320 L0,320 Z"
        fill="#3A3630" opacity="0.6"/>
  <!-- Capa 3 -->
  <path d="M0,260 L100,190 L200,230 L300,160 L400,200 L500,140 L600,180 L700,120
           L800,160 L900,105 L1000,145 L1100,95 L1200,135 L1300,100 L1440,130
           L1440,320 L0,320 Z"
        fill="#1E1C18" opacity="0.8"/>
  <!-- Capa 2 -->
  <path d="M0,290 L120,220 L240,265 L360,195 L480,240 L580,175 L680,220 L780,165
           L880,205 L980,155 L1080,195 L1180,150 L1300,180 L1440,165 L1440,320 L0,320 Z"
        fill="#1C0A00" opacity="0.9"/>
  <!-- Capa 1: más cercana -->
  <path d="M0,310 L160,255 L300,290 L440,240 L560,275 L680,235 L800,265 L920,230
           L1040,258 L1160,228 L1300,248 L1440,232 L1440,320 L0,320 Z"
        fill="#0E0C0A"/>
</svg>
